<svg width="24" height="24" viewBox="0 0 24 24" fill="none" xmlns="http://www.w3.org/2000/svg">
<path d="M12 0.75C7.64625 0.75 4.125 4.27125 4.125 8.625C4.125 13.3162 9.0975 19.785 11.145 22.2487C11.595 22.7887 12.4163 22.7887 12.8663 22.2487C14.9025 19.785 19.875 13.3162 19.875 8.625C19.875 4.27125 16.3538 0.75 12 0.75ZM12 11.4375C11.2541 11.4375 10.5387 11.1412 10.0113 10.6137C9.48382 10.0863 9.1875 9.37092 9.1875 8.625C9.1875 7.87908 9.48382 7.16371 10.0113 6.63626C10.5387 6.10882 11.2541 5.8125 12 5.8125C12.7459 5.8125 13.4613 6.10882 13.9887 6.63626C14.5162 7.16371 14.8125 7.87908 14.8125 8.625C14.8125 9.37092 14.5162 10.0863 13.9887 10.6137C13.4613 11.1412 12.7459 11.4375 12 11.4375Z" fill="#4263EB"/>
</svg>
