<svg xmlns="http://www.w3.org/2000/svg" xmlns:xlink="http://www.w3.org/1999/xlink"><defs><symbol viewBox="0 0 32 32" id="copy"><path d="M24.0001 10.667H13.3334C11.8607 10.667 10.6667 11.8609 10.6667 13.3337V24.0003C10.6667 25.4731 11.8607 26.667 13.3334 26.667H24.0001C25.4728 26.667 26.6667 25.4731 26.6667 24.0003V13.3337C26.6667 11.8609 25.4728 10.667 24.0001 10.667Z" stroke-width="2" stroke-linecap="round" stroke-linejoin="round" /><path d="M21.3334 10.6668V8.00016C21.3334 7.29292 21.0524 6.61464 20.5523 6.11454C20.0522 5.61445 19.374 5.3335 18.6667 5.3335H8.00004C7.2928 5.3335 6.61452 5.61445 6.11442 6.11454C5.61433 6.61464 5.33337 7.29292 5.33337 8.00016V18.6668C5.33337 19.3741 5.61433 20.0524 6.11442 20.5524C6.61452 21.0525 7.2928 21.3335 8.00004 21.3335H10.6667" stroke-width="2" stroke-linecap="round" stroke-linejoin="round" /></symbol><symbol viewBox="0 0 24 24" id="location"><path d="M12 0.75C7.64625 0.75 4.125 4.27125 4.125 8.625C4.125 13.3162 9.0975 19.785 11.145 22.2487C11.595 22.7887 12.4163 22.7887 12.8663 22.2487C14.9025 19.785 19.875 13.3162 19.875 8.625C19.875 4.27125 16.3538 0.75 12 0.75ZM12 11.4375C11.2541 11.4375 10.5387 11.1412 10.0113 10.6137C9.48382 10.0863 9.1875 9.37092 9.1875 8.625C9.1875 7.87908 9.48382 7.16371 10.0113 6.63626C10.5387 6.10882 11.2541 5.8125 12 5.8125C12.7459 5.8125 13.4613 6.10882 13.9887 6.63626C14.5162 7.16371 14.8125 7.87908 14.8125 8.625C14.8125 9.37092 14.5162 10.0863 13.9887 10.6137C13.4613 11.1412 12.7459 11.4375 12 11.4375Z" /></symbol><symbol viewBox="0 0 16 16" id="ws"><path fill-rule="evenodd" clip-rule="evenodd" d="M13.6687 2.32548C12.9307 1.58614 12.0527 0.999906 11.0854 0.60073C10.1181 0.201554 9.08084 -0.0026233 8.03371 2.54441e-05C3.64281 2.54441e-05 0.0683305 3.55666 0.0665556 7.92847C0.0665556 9.32569 0.433055 10.6893 1.12967 11.8923L0 16L4.22318 14.8969C5.39135 15.5298 6.70011 15.8616 8.03016 15.8622H8.03371C12.4237 15.8622 15.9982 12.3056 16 7.93377C16.003 6.89203 15.7985 5.86002 15.3984 4.8974C14.9982 3.93478 14.4104 3.06063 13.6687 2.32548ZM8.03371 14.5242H8.03104C6.84504 14.5243 5.68086 14.2067 4.66067 13.6048L4.41929 13.4617L1.91325 14.1161L2.58147 11.6847L2.4244 11.4356C1.76132 10.385 1.4103 9.16917 1.41187 7.92847C1.41364 4.29501 4.3838 1.33895 8.03637 1.33895C8.90625 1.33703 9.76788 1.50683 10.5714 1.83853C11.3749 2.17023 12.1043 2.65725 12.7174 3.27138C13.3339 3.88259 13.8224 4.60933 14.1549 5.4096C14.4875 6.20986 14.6573 7.06779 14.6547 7.93377C14.6529 11.5672 11.6827 14.5242 8.03371 14.5242ZM11.6659 9.588C11.4662 9.4882 10.4883 9.00951 10.3055 8.94327C10.1236 8.87703 9.99133 8.84435 9.85822 9.04218C9.72511 9.24002 9.34352 9.68603 9.22727 9.81851C9.11102 9.95099 8.99477 9.96689 8.79599 9.86797C8.59721 9.76905 7.95561 9.55974 7.1951 8.88498C6.6032 8.35947 6.20387 7.71121 6.08762 7.51249C5.97137 7.31377 6.0752 7.2069 6.17547 7.10799C6.2651 7.01967 6.37425 6.87659 6.47364 6.76089C6.57303 6.64519 6.60587 6.56305 6.67242 6.43057C6.73898 6.29809 6.70614 6.1824 6.65556 6.08348C6.60587 5.98368 6.20742 5.00863 6.04147 4.61207C5.88085 4.22788 5.71668 4.27911 5.59422 4.27381C5.46739 4.26865 5.34046 4.26629 5.21352 4.26674C5.11258 4.2693 5.01327 4.29259 4.9218 4.33515C4.83033 4.3777 4.74868 4.4386 4.68196 4.51404C4.49916 4.71276 3.98535 5.19145 3.98535 6.1665C3.98535 7.14155 4.69883 8.08392 4.79821 8.2164C4.8976 8.34888 6.2021 10.3493 8.19876 11.2078C8.67441 11.4118 9.04535 11.5337 9.33376 11.6255C9.8103 11.7766 10.2442 11.7545 10.5877 11.7041C10.9701 11.6476 11.7653 11.2254 11.9312 10.7626C12.0971 10.2999 12.0971 9.9033 12.0475 9.82028C11.9978 9.73726 11.8638 9.68692 11.6659 9.588Z" /></symbol><symbol viewBox="0 0 40 40" id="ws-large"><rect width="40" height="40" rx="20" /><path fill-rule="evenodd" clip-rule="evenodd" d="M27.0859 12.9068C26.1634 11.9827 25.0658 11.2499 23.8567 10.7509C22.6476 10.2519 21.3511 9.99672 20.0421 10C14.5535 10 10.0854 14.4458 10.0832 19.9106C10.0832 21.6571 10.5413 23.3617 11.4121 24.8653L10 30L15.279 28.6211C16.7392 29.4122 18.3751 29.8271 20.0377 29.8278H20.0421C25.5296 29.8278 29.9977 25.382 30 19.9172C30.0037 18.615 29.7481 17.325 29.248 16.1217C28.7478 14.9185 28.013 13.8258 27.0859 12.9068ZM20.0421 28.1552H20.0388C18.5563 28.1554 17.1011 27.7584 15.8258 27.006L15.5241 26.8271L12.3916 27.6452L13.2268 24.6059L13.0305 24.2946C12.2016 22.9813 11.7629 21.4615 11.7648 19.9106C11.7671 15.3688 15.4797 11.6737 20.0455 11.6737C21.1328 11.6713 22.2098 11.8835 23.2142 12.2982C24.2186 12.7128 25.1304 13.3216 25.8968 14.0892C26.6673 14.8532 27.278 15.7617 27.6937 16.762C28.1093 17.7623 28.3216 18.8347 28.3183 19.9172C28.3161 24.4591 24.6034 28.1552 20.0421 28.1552ZM24.5823 21.985C24.3327 21.8602 23.1103 21.2619 22.8818 21.1791C22.6544 21.0963 22.4892 21.0554 22.3228 21.3027C22.1564 21.55 21.6794 22.1075 21.5341 22.2731C21.3888 22.4387 21.2435 22.4586 20.995 22.335C20.7465 22.2113 19.9445 21.9497 18.9939 21.1062C18.254 20.4493 17.7548 19.639 17.6095 19.3906C17.4642 19.1422 17.594 19.0086 17.7193 18.885C17.8314 18.7746 17.9678 18.5957 18.0921 18.4511C18.2163 18.3065 18.2573 18.2038 18.3405 18.0382C18.4237 17.8726 18.3827 17.728 18.3195 17.6043C18.2573 17.4796 17.7593 16.2608 17.5518 15.7651C17.3511 15.2849 17.1459 15.3489 16.9928 15.3423C16.8342 15.3358 16.6756 15.3329 16.5169 15.3334C16.3907 15.3366 16.2666 15.3657 16.1522 15.4189C16.0379 15.4721 15.9358 15.5483 15.8525 15.6425C15.6239 15.8909 14.9817 16.4893 14.9817 17.7081C14.9817 18.9269 15.8735 20.1049 15.9978 20.2705C16.122 20.4361 17.7526 22.9366 20.2485 24.0097C20.843 24.2647 21.3067 24.4171 21.6672 24.5319C22.2629 24.7207 22.8053 24.6931 23.2346 24.6302C23.7127 24.5595 24.7066 24.0318 24.914 23.4533C25.1214 22.8748 25.1214 22.3791 25.0593 22.2753C24.9972 22.1716 24.8297 22.1086 24.5823 21.985Z" /></symbol></defs></svg>