<svg width="32" height="32" viewBox="0 0 32 32" fill="none" xmlns="http://www.w3.org/2000/svg">
<path d="M24.0001 10.667H13.3334C11.8607 10.667 10.6667 11.8609 10.6667 13.3337V24.0003C10.6667 25.4731 11.8607 26.667 13.3334 26.667H24.0001C25.4728 26.667 26.6667 25.4731 26.6667 24.0003V13.3337C26.6667 11.8609 25.4728 10.667 24.0001 10.667Z" stroke="#4263EB" stroke-width="2" stroke-linecap="round" stroke-linejoin="round"/>
<path d="M21.3334 10.6668V8.00016C21.3334 7.29292 21.0524 6.61464 20.5523 6.11454C20.0522 5.61445 19.374 5.3335 18.6667 5.3335H8.00004C7.2928 5.3335 6.61452 5.61445 6.11442 6.11454C5.61433 6.61464 5.33337 7.29292 5.33337 8.00016V18.6668C5.33337 19.3741 5.61433 20.0524 6.11442 20.5524C6.61452 21.0525 7.2928 21.3335 8.00004 21.3335H10.6667" stroke="#4263EB" stroke-width="2" stroke-linecap="round" stroke-linejoin="round"/>
</svg>
