<svg width="58" height="58" viewBox="0 0 58 58" fill="none" xmlns="http://www.w3.org/2000/svg">
<path d="M29 1.8125C18.4784 1.8125 9.96875 10.3222 9.96875 20.8437C9.96875 32.1809 21.9856 47.8137 26.9338 53.7678C28.0212 55.0728 30.0059 55.0728 31.0934 53.7678C36.0144 47.8137 48.0312 32.1809 48.0312 20.8437C48.0312 10.3222 39.5216 1.8125 29 1.8125ZM29 27.6406C27.1974 27.6406 25.4685 26.9245 24.1939 25.6499C22.9192 24.3752 22.2031 22.6464 22.2031 20.8437C22.2031 19.0411 22.9192 17.3123 24.1939 16.0376C25.4685 14.763 27.1974 14.0469 29 14.0469C30.8026 14.0469 32.5315 14.763 33.8061 16.0376C35.0808 17.3123 35.7969 19.0411 35.7969 20.8437C35.7969 22.6464 35.0808 24.3752 33.8061 25.6499C32.5315 26.9245 30.8026 27.6406 29 27.6406Z" fill="#4263EB"/>
</svg>
